{
	"asset": {
		"generator": "Tilt Brush 22.3.bfe37158d",
		"version": "1.1",
		"copyright": "Unknown."
	},
	"buffers": {
		"buffer_sketch": {
			"byteLength": 210324,
			"type": "arraybuffer",
			"uri": "sketch.bin"
		}
	},
	"accessors": {
		"accessor_position_MatteHull_79348357-432d-4746-8e29-0e25c112e3aa_0_i0": {
			"bufferView": "vec3BufferView",
			"byteOffset": 0,
			"byteStride": 12,
			"componentType": 5126,
			"count": 2424,
			"max": [ -0.830200136, 0.790240347, 0.166367635 ],
			"min": [ -1.27016497, 0.559536099, -0.217001468 ],
			"type": "VEC3"
		},
		"accessor_normal_MatteHull_79348357-432d-4746-8e29-0e25c112e3aa_0_i0": {
			"bufferView": "vec3BufferView",
			"byteOffset": 29088,
			"byteStride": 12,
			"componentType": 5126,
			"count": 2424,
			"max": [ 0.982644916, 0.998721004, 0.997987926 ],
			"min": [ -0.995576441, -0.996610761, -0.997988582 ],
			"type": "VEC3"
		},
		"accessor_color_MatteHull_79348357-432d-4746-8e29-0e25c112e3aa_0_i0": {
			"bufferView": "vec4BufferView",
			"byteOffset": 0,
			"byteStride": 16,
			"componentType": 5126,
			"count": 2424,
			"type": "VEC4"
		},
		"accessor_uv0_MatteHull_79348357-432d-4746-8e29-0e25c112e3aa_0_i0": {
			"bufferView": "vec3BufferView",
			"byteOffset": 58176,
			"byteStride": 12,
			"componentType": 5126,
			"count": 2424,
			"max": [ 0, 1, 0.000518619781 ],
			"min": [ 0, 1, 0.000500000024 ],
			"type": "VEC3"
		},
		"accessor_indices_0_MatteHull_79348357-432d-4746-8e29-0e25c112e3aa_0_i0": {
			"bufferView": "ushortBufferView",
			"byteOffset": 0,
			"byteStride": 0,
			"componentType": 5123,
			"count": 2424,
			"max": [ 2423 ],
			"min": [ 0 ],
			"type": "SCALAR"
		},
		"accessor_position_NeonPulse_b2ffef01-eaaa-4ab5-aa64-95a2c4f5dbc6_0_i0": {
			"bufferView": "vec3BufferView",
			"byteOffset": 87264,
			"byteStride": 12,
			"componentType": 5126,
			"count": 825,
			"max": [ -0.630210578, 0.696473062, 0.133052185 ],
			"min": [ -1.23966265, -0.19252269, -0.627782762 ],
			"type": "VEC3"
		},
		"accessor_normal_NeonPulse_b2ffef01-eaaa-4ab5-aa64-95a2c4f5dbc6_0_i0": {
			"bufferView": "vec3BufferView",
			"byteOffset": 97164,
			"byteStride": 12,
			"componentType": 5126,
			"count": 825,
			"max": [ 0.907406151, 0.999336004, 0.883588135 ],
			"min": [ -0.907406151, -0.999336004, -0.883588135 ],
			"type": "VEC3"
		},
		"accessor_color_NeonPulse_b2ffef01-eaaa-4ab5-aa64-95a2c4f5dbc6_0_i0": {
			"bufferView": "vec4BufferView",
			"byteOffset": 38784,
			"byteStride": 16,
			"componentType": 5126,
			"count": 825,
			"type": "VEC4"
		},
		"accessor_tangent_NeonPulse_b2ffef01-eaaa-4ab5-aa64-95a2c4f5dbc6_0_i0": {
			"bufferView": "vec4BufferView",
			"byteOffset": 51984,
			"byteStride": 16,
			"componentType": 5126,
			"count": 825,
			"max": [ 0.859865665, 0.975725055, 0.880829334, 1 ],
			"min": [ -0.859865546, -0.975725174, -0.883588135, 1 ],
			"type": "VEC4"
		},
		"accessor_uv0_NeonPulse_b2ffef01-eaaa-4ab5-aa64-95a2c4f5dbc6_0_i0": {
			"bufferView": "vec3BufferView",
			"byteOffset": 107064,
			"byteStride": 12,
			"componentType": 5126,
			"count": 825,
			"max": [ 1.06107521, 1, 0.00376986642 ],
			"min": [ 0.0236372706, 0, 0 ],
			"type": "VEC3"
		},
		"accessor_indices_0_NeonPulse_b2ffef01-eaaa-4ab5-aa64-95a2c4f5dbc6_0_i0": {
			"bufferView": "ushortBufferView",
			"byteOffset": 4848,
			"byteStride": 0,
			"componentType": 5123,
			"count": 3888,
			"max": [ 824 ],
			"min": [ 0 ],
			"type": "SCALAR"
		},
		"accessor_position_ShinyHull_faaa4d44-fcfb-4177-96be-753ac0421ba3_0_i0": {
			"bufferView": "vec3BufferView",
			"byteOffset": 116964,
			"byteStride": 12,
			"componentType": 5126,
			"count": 288,
			"max": [ -0.831539333, 0.765778959, 0.162960932 ],
			"min": [ -1.27375805, 0.730345666, -0.222362116 ],
			"type": "VEC3"
		},
		"accessor_normal_ShinyHull_faaa4d44-fcfb-4177-96be-753ac0421ba3_0_i0": {
			"bufferView": "vec3BufferView",
			"byteOffset": 120420,
			"byteStride": 12,
			"componentType": 5126,
			"count": 288,
			"max": [ 0.961051166, 0.951573372, 0.975509465 ],
			"min": [ -0.970663607, -0.951573372, -0.981399536 ],
			"type": "VEC3"
		},
		"accessor_color_ShinyHull_faaa4d44-fcfb-4177-96be-753ac0421ba3_0_i0": {
			"bufferView": "vec4BufferView",
			"byteOffset": 65184,
			"byteStride": 16,
			"componentType": 5126,
			"count": 288,
			"type": "VEC4"
		},
		"accessor_uv0_ShinyHull_faaa4d44-fcfb-4177-96be-753ac0421ba3_0_i0": {
			"bufferView": "vec3BufferView",
			"byteOffset": 123876,
			"byteStride": 12,
			"componentType": 5126,
			"count": 288,
			"max": [ 0, 1, 0.00746346265 ],
			"min": [ 0, 1, 0.00473054266 ],
			"type": "VEC3"
		},
		"accessor_indices_0_ShinyHull_faaa4d44-fcfb-4177-96be-753ac0421ba3_0_i0": {
			"bufferView": "ushortBufferView",
			"byteOffset": 12624,
			"byteStride": 0,
			"componentType": 5123,
			"count": 288,
			"max": [ 287 ],
			"min": [ 0 ],
			"type": "SCALAR"
		}
	},
	"bufferViews": {
		"ushortBufferView": {
			"buffer": "buffer_sketch",
			"byteLength": 13200,
			"byteOffset": 0,
			"target": 34963
		},
		"vec3BufferView": {
			"buffer": "buffer_sketch",
			"byteLength": 127332,
			"byteOffset": 13200,
			"target": 34962
		},
		"vec4BufferView": {
			"buffer": "buffer_sketch",
			"byteLength": 69792,
			"byteOffset": 140532,
			"target": 34962
		}
	},
	"meshes": {
		"mesh_MatteHull_79348357-432d-4746-8e29-0e25c112e3aa_0_i0": {
			"name": "mesh_MatteHull_79348357-432d-4746-8e29-0e25c112e3aa_0_i0",
			"primitives": [
				{
					"attributes": {
						"POSITION": "accessor_position_MatteHull_79348357-432d-4746-8e29-0e25c112e3aa_0_i0",
						"NORMAL": "accessor_normal_MatteHull_79348357-432d-4746-8e29-0e25c112e3aa_0_i0",
						"COLOR": "accessor_color_MatteHull_79348357-432d-4746-8e29-0e25c112e3aa_0_i0",
						"TEXCOORD_0": "accessor_uv0_MatteHull_79348357-432d-4746-8e29-0e25c112e3aa_0_i0"
					},
					"indices": "accessor_indices_0_MatteHull_79348357-432d-4746-8e29-0e25c112e3aa_0_i0",
					"material": "material_79348357-432d-4746-8e29-0e25c112e3aa",
					"mode": 4
				}
			]
		},
		"mesh_NeonPulse_b2ffef01-eaaa-4ab5-aa64-95a2c4f5dbc6_0_i0": {
			"name": "mesh_NeonPulse_b2ffef01-eaaa-4ab5-aa64-95a2c4f5dbc6_0_i0",
			"primitives": [
				{
					"attributes": {
						"POSITION": "accessor_position_NeonPulse_b2ffef01-eaaa-4ab5-aa64-95a2c4f5dbc6_0_i0",
						"NORMAL": "accessor_normal_NeonPulse_b2ffef01-eaaa-4ab5-aa64-95a2c4f5dbc6_0_i0",
						"COLOR": "accessor_color_NeonPulse_b2ffef01-eaaa-4ab5-aa64-95a2c4f5dbc6_0_i0",
						"TANGENT": "accessor_tangent_NeonPulse_b2ffef01-eaaa-4ab5-aa64-95a2c4f5dbc6_0_i0",
						"TEXCOORD_0": "accessor_uv0_NeonPulse_b2ffef01-eaaa-4ab5-aa64-95a2c4f5dbc6_0_i0"
					},
					"indices": "accessor_indices_0_NeonPulse_b2ffef01-eaaa-4ab5-aa64-95a2c4f5dbc6_0_i0",
					"material": "material_b2ffef01-eaaa-4ab5-aa64-95a2c4f5dbc6",
					"mode": 4
				}
			]
		},
		"mesh_ShinyHull_faaa4d44-fcfb-4177-96be-753ac0421ba3_0_i0": {
			"name": "mesh_ShinyHull_faaa4d44-fcfb-4177-96be-753ac0421ba3_0_i0",
			"primitives": [
				{
					"attributes": {
						"POSITION": "accessor_position_ShinyHull_faaa4d44-fcfb-4177-96be-753ac0421ba3_0_i0",
						"NORMAL": "accessor_normal_ShinyHull_faaa4d44-fcfb-4177-96be-753ac0421ba3_0_i0",
						"COLOR": "accessor_color_ShinyHull_faaa4d44-fcfb-4177-96be-753ac0421ba3_0_i0",
						"TEXCOORD_0": "accessor_uv0_ShinyHull_faaa4d44-fcfb-4177-96be-753ac0421ba3_0_i0"
					},
					"indices": "accessor_indices_0_ShinyHull_faaa4d44-fcfb-4177-96be-753ac0421ba3_0_i0",
					"material": "material_faaa4d44-fcfb-4177-96be-753ac0421ba3",
					"mode": 4
				}
			]
		}
	},
	"shaders": {
		"vertex_79348357-432d-4746-8e29-0e25c112e3aa": {
			"type": 35633,
			"uri": "https://www.tiltbrush.com/shaders/brushes/MatteHull-79348357-432d-4746-8e29-0e25c112e3aa/MatteHull-79348357-432d-4746-8e29-0e25c112e3aa-v10.0-vertex.glsl"
		},
		"fragment_79348357-432d-4746-8e29-0e25c112e3aa": {
			"type": 35632,
			"uri": "https://www.tiltbrush.com/shaders/brushes/MatteHull-79348357-432d-4746-8e29-0e25c112e3aa/MatteHull-79348357-432d-4746-8e29-0e25c112e3aa-v10.0-fragment.glsl"
		},
		"vertex_b2ffef01-eaaa-4ab5-aa64-95a2c4f5dbc6": {
			"type": 35633,
			"uri": "https://www.tiltbrush.com/shaders/brushes/NeonPulse-b2ffef01-eaaa-4ab5-aa64-95a2c4f5dbc6/NeonPulse-b2ffef01-eaaa-4ab5-aa64-95a2c4f5dbc6-v10.0-vertex.glsl"
		},
		"fragment_b2ffef01-eaaa-4ab5-aa64-95a2c4f5dbc6": {
			"type": 35632,
			"uri": "https://www.tiltbrush.com/shaders/brushes/NeonPulse-b2ffef01-eaaa-4ab5-aa64-95a2c4f5dbc6/NeonPulse-b2ffef01-eaaa-4ab5-aa64-95a2c4f5dbc6-v10.0-fragment.glsl"
		},
		"vertex_faaa4d44-fcfb-4177-96be-753ac0421ba3": {
			"type": 35633,
			"uri": "https://www.tiltbrush.com/shaders/brushes/ShinyHull-faaa4d44-fcfb-4177-96be-753ac0421ba3/ShinyHull-faaa4d44-fcfb-4177-96be-753ac0421ba3-v10.0-vertex.glsl"
		},
		"fragment_faaa4d44-fcfb-4177-96be-753ac0421ba3": {
			"type": 35632,
			"uri": "https://www.tiltbrush.com/shaders/brushes/ShinyHull-faaa4d44-fcfb-4177-96be-753ac0421ba3/ShinyHull-faaa4d44-fcfb-4177-96be-753ac0421ba3-v10.0-fragment.glsl"
		}
	},
	"programs": {
		"program_79348357-432d-4746-8e29-0e25c112e3aa": {
			"attributes": [
				"a_position",
				"a_normal",
				"a_color",
				"a_texcoord0"
			],
			"vertexShader": "vertex_79348357-432d-4746-8e29-0e25c112e3aa",
			"fragmentShader": "fragment_79348357-432d-4746-8e29-0e25c112e3aa"
		},
		"program_b2ffef01-eaaa-4ab5-aa64-95a2c4f5dbc6": {
			"attributes": [
				"a_position",
				"a_normal",
				"a_color",
				"a_tangent",
				"a_texcoord0"
			],
			"vertexShader": "vertex_b2ffef01-eaaa-4ab5-aa64-95a2c4f5dbc6",
			"fragmentShader": "fragment_b2ffef01-eaaa-4ab5-aa64-95a2c4f5dbc6"
		},
		"program_faaa4d44-fcfb-4177-96be-753ac0421ba3": {
			"attributes": [
				"a_position",
				"a_normal",
				"a_color",
				"a_texcoord0"
			],
			"vertexShader": "vertex_faaa4d44-fcfb-4177-96be-753ac0421ba3",
			"fragmentShader": "fragment_faaa4d44-fcfb-4177-96be-753ac0421ba3"
		}
	},
	"techniques": {
		"technique_79348357-432d-4746-8e29-0e25c112e3aa": {
			"program": "program_79348357-432d-4746-8e29-0e25c112e3aa",
			"parameters": {
				"position": {
					"type": 35665,
					"semantic": "POSITION"
				},
				"normal": {
					"type": 35665,
					"semantic": "NORMAL"
				},
				"color": {
					"type": 35666,
					"semantic": "COLOR"
				},
				"texcoord0": {
					"type": 35665,
					"semantic": "TEXCOORD_0"
				},
				"modelViewMatrix": {
					"type": 35676,
					"semantic": "MODELVIEW"
				},
				"projectionMatrix": {
					"type": 35676,
					"semantic": "PROJECTION"
				},
				"normalMatrix": {
					"type": 35675,
					"semantic": "MODELVIEWINVERSETRANSPOSE"
				},
				"SceneLight_0_matrix": {
					"type": 35676,
					"semantic": "MODELVIEW",
					"node": "node_SceneLight_0_i1"
				},
				"SceneLight_0_color": {
					"type": 35666,
					"node": "node_SceneLight_0_i1"
				},
				"SceneLight_1_matrix": {
					"type": 35676,
					"semantic": "MODELVIEW",
					"node": "node_SceneLight_1_i2"
				},
				"SceneLight_1_color": {
					"type": 35666,
					"node": "node_SceneLight_1_i2"
				},
				"ambient_light_color": {
					"type": 35666
				},
				"Cutoff": {
					"type": 5126
				},
				"Color": {
					"type": 35666
				}
			},
			"attributes": {
				"a_position": "position",
				"a_normal": "normal",
				"a_color": "color",
				"a_texcoord0": "texcoord0"
			},
			"uniforms": {
				"u_modelViewMatrix": "modelViewMatrix",
				"u_projectionMatrix": "projectionMatrix",
				"u_normalMatrix": "normalMatrix",
				"u_SceneLight_0_matrix": "SceneLight_0_matrix",
				"u_SceneLight_0_color": "SceneLight_0_color",
				"u_SceneLight_1_matrix": "SceneLight_1_matrix",
				"u_SceneLight_1_color": "SceneLight_1_color",
				"u_ambient_light_color": "ambient_light_color",
				"u_Cutoff": "Cutoff",
				"u_Color": "Color"
			},
			"states": {
				"enable": [
					2929
				],
				"functions": {
					"depthMask": [true]
				}
			}
		},
		"technique_b2ffef01-eaaa-4ab5-aa64-95a2c4f5dbc6": {
			"program": "program_b2ffef01-eaaa-4ab5-aa64-95a2c4f5dbc6",
			"parameters": {
				"position": {
					"type": 35665,
					"semantic": "POSITION"
				},
				"normal": {
					"type": 35665,
					"semantic": "NORMAL"
				},
				"color": {
					"type": 35666,
					"semantic": "COLOR"
				},
				"tangent": {
					"type": 35666,
					"semantic": "TANGENT"
				},
				"texcoord0": {
					"type": 35665,
					"semantic": "TEXCOORD_0"
				},
				"modelViewMatrix": {
					"type": 35676,
					"semantic": "MODELVIEW"
				},
				"projectionMatrix": {
					"type": 35676,
					"semantic": "PROJECTION"
				},
				"normalMatrix": {
					"type": 35675,
					"semantic": "MODELVIEWINVERSETRANSPOSE"
				},
				"SceneLight_0_matrix": {
					"type": 35676,
					"semantic": "MODELVIEW",
					"node": "node_SceneLight_0_i1"
				},
				"SceneLight_0_color": {
					"type": 35666,
					"node": "node_SceneLight_0_i1"
				},
				"SceneLight_1_matrix": {
					"type": 35676,
					"semantic": "MODELVIEW",
					"node": "node_SceneLight_1_i2"
				},
				"SceneLight_1_color": {
					"type": 35666,
					"node": "node_SceneLight_1_i2"
				},
				"ambient_light_color": {
					"type": 35666
				},
				"EmissionGain": {
					"type": 5126
				}
			},
			"attributes": {
				"a_position": "position",
				"a_normal": "normal",
				"a_color": "color",
				"a_tangent": "tangent",
				"a_texcoord0": "texcoord0"
			},
			"uniforms": {
				"u_modelViewMatrix": "modelViewMatrix",
				"u_projectionMatrix": "projectionMatrix",
				"u_normalMatrix": "normalMatrix",
				"u_SceneLight_0_matrix": "SceneLight_0_matrix",
				"u_SceneLight_0_color": "SceneLight_0_color",
				"u_SceneLight_1_matrix": "SceneLight_1_matrix",
				"u_SceneLight_1_color": "SceneLight_1_color",
				"u_ambient_light_color": "ambient_light_color",
				"u_EmissionGain": "EmissionGain"
			},
			"states": {
				"enable": [
					2929,
					3042
				],
				"functions": {
					"blendFuncSeparate": [1, 1, 1, 1],
					"depthMask": [false]
				}
			}
		},
		"technique_faaa4d44-fcfb-4177-96be-753ac0421ba3": {
			"program": "program_faaa4d44-fcfb-4177-96be-753ac0421ba3",
			"parameters": {
				"position": {
					"type": 35665,
					"semantic": "POSITION"
				},
				"normal": {
					"type": 35665,
					"semantic": "NORMAL"
				},
				"color": {
					"type": 35666,
					"semantic": "COLOR"
				},
				"texcoord0": {
					"type": 35665,
					"semantic": "TEXCOORD_0"
				},
				"modelViewMatrix": {
					"type": 35676,
					"semantic": "MODELVIEW"
				},
				"projectionMatrix": {
					"type": 35676,
					"semantic": "PROJECTION"
				},
				"normalMatrix": {
					"type": 35675,
					"semantic": "MODELVIEWINVERSETRANSPOSE"
				},
				"SceneLight_0_matrix": {
					"type": 35676,
					"semantic": "MODELVIEW",
					"node": "node_SceneLight_0_i1"
				},
				"SceneLight_0_color": {
					"type": 35666,
					"node": "node_SceneLight_0_i1"
				},
				"SceneLight_1_matrix": {
					"type": 35676,
					"semantic": "MODELVIEW",
					"node": "node_SceneLight_1_i2"
				},
				"SceneLight_1_color": {
					"type": 35666,
					"node": "node_SceneLight_1_i2"
				},
				"ambient_light_color": {
					"type": 35666
				},
				"Shininess": {
					"type": 5126
				},
				"Cutoff": {
					"type": 5126
				},
				"Color": {
					"type": 35666
				},
				"SpecColor": {
					"type": 35666
				}
			},
			"attributes": {
				"a_position": "position",
				"a_normal": "normal",
				"a_color": "color",
				"a_texcoord0": "texcoord0"
			},
			"uniforms": {
				"u_modelViewMatrix": "modelViewMatrix",
				"u_projectionMatrix": "projectionMatrix",
				"u_normalMatrix": "normalMatrix",
				"u_SceneLight_0_matrix": "SceneLight_0_matrix",
				"u_SceneLight_0_color": "SceneLight_0_color",
				"u_SceneLight_1_matrix": "SceneLight_1_matrix",
				"u_SceneLight_1_color": "SceneLight_1_color",
				"u_ambient_light_color": "ambient_light_color",
				"u_Shininess": "Shininess",
				"u_Cutoff": "Cutoff",
				"u_Color": "Color",
				"u_SpecColor": "SpecColor"
			},
			"states": {
				"enable": [
					2929
				],
				"functions": {
					"depthMask": [true]
				}
			}
		}
	},
	"materials": {
		"material_79348357-432d-4746-8e29-0e25c112e3aa": {
			"technique": "technique_79348357-432d-4746-8e29-0e25c112e3aa",
			"values": {
				"SceneLight_0_color": [1.16, 0.8666667, 0.8666667, 1],
				"SceneLight_1_color": [0, 0, 0, 1],
				"ambient_light_color": [0.227451, 0.2078431, 0.3607843, 1],
				"Cutoff": 0.5,
				"Color": [1, 1, 1, 1]
			},
			"name": "material_79348357-432d-4746-8e29-0e25c112e3aa"
		},
		"material_b2ffef01-eaaa-4ab5-aa64-95a2c4f5dbc6": {
			"technique": "technique_b2ffef01-eaaa-4ab5-aa64-95a2c4f5dbc6",
			"values": {
				"SceneLight_0_color": [1.16, 0.8666667, 0.8666667, 1],
				"SceneLight_1_color": [0, 0, 0, 1],
				"ambient_light_color": [0.227451, 0.2078431, 0.3607843, 1],
				"EmissionGain": 0.5
			},
			"name": "material_b2ffef01-eaaa-4ab5-aa64-95a2c4f5dbc6"
		},
		"material_faaa4d44-fcfb-4177-96be-753ac0421ba3": {
			"technique": "technique_faaa4d44-fcfb-4177-96be-753ac0421ba3",
			"values": {
				"SceneLight_0_color": [1.16, 0.8666667, 0.8666667, 1],
				"SceneLight_1_color": [0, 0, 0, 1],
				"ambient_light_color": [0.227451, 0.2078431, 0.3607843, 1],
				"Shininess": 0.743,
				"Cutoff": 0.5,
				"Color": [1, 1, 1, 1],
				"SpecColor": [0.1985294, 0.1985294, 0.1985294, 0]
			},
			"name": "material_faaa4d44-fcfb-4177-96be-753ac0421ba3"
		}
	},
	"nodes": {
		"node_MatteHull_79348357-432d-4746-8e29-0e25c112e3aa_0_i0": {
			"name": "node_MatteHull_79348357-432d-4746-8e29-0e25c112e3aa_0_i0",
			"meshes": [
				"mesh_MatteHull_79348357-432d-4746-8e29-0e25c112e3aa_0_i0"
			],
			"matrix": [1, 0, 0, 0, 0, 1, 0, 0, 0, 0, 1, 0, 0, 0, 0, 1]
		},
		"node_SceneLight_0_i1": {
			"name": "node_SceneLight_0_i1",
			"light": "SceneLight_0",
			"matrix": [0.7386057, 0.663414, 0.1197638, 0, -0.3802362, 0.5566703, -0.7386059, 0, -0.5566704, 0.5, 0.6634139, 0, -0.2370593, 1.472983, -0.5314611, 1]
		},
		"node_SceneLight_1_i2": {
			"name": "node_SceneLight_1_i2",
			"light": "SceneLight_1",
			"matrix": [1, 0, 0, 0, 0, 1, 0, 0, 0, 0, 1, 0, -0.2668317, 1.415405, -0.4713013, 1]
		},
		"node_NeonPulse_b2ffef01-eaaa-4ab5-aa64-95a2c4f5dbc6_0_i0": {
			"name": "node_NeonPulse_b2ffef01-eaaa-4ab5-aa64-95a2c4f5dbc6_0_i0",
			"meshes": [
				"mesh_NeonPulse_b2ffef01-eaaa-4ab5-aa64-95a2c4f5dbc6_0_i0"
			],
			"matrix": [1, 0, 0, 0, 0, 1, 0, 0, 0, 0, 1, 0, 0, 0, 0, 1]
		},
		"node_ShinyHull_faaa4d44-fcfb-4177-96be-753ac0421ba3_0_i0": {
			"name": "node_ShinyHull_faaa4d44-fcfb-4177-96be-753ac0421ba3_0_i0",
			"meshes": [
				"mesh_ShinyHull_faaa4d44-fcfb-4177-96be-753ac0421ba3_0_i0"
			],
			"matrix": [1, 0, 0, 0, 0, 1, 0, 0, 0, 0, 1, 0, 0, 0, 0, 1]
		}
	},
	"scene": "defaultScene",
	"scenes": {
		"defaultScene": {
			"nodes": [
				"node_MatteHull_79348357-432d-4746-8e29-0e25c112e3aa_0_i0",
				"node_SceneLight_0_i1",
				"node_SceneLight_1_i2",
				"node_NeonPulse_b2ffef01-eaaa-4ab5-aa64-95a2c4f5dbc6_0_i0",
				"node_ShinyHull_faaa4d44-fcfb-4177-96be-753ac0421ba3_0_i0"
			],
			"extras": {
				"TB_EnvironmentGuid": "96cf6f36-47b6-44f4-bdbf-63be2ddac909",
				"TB_Environment": "Space",
				"TB_UseGradient": "false",
				"TB_SkyColorA": "0, 0, 0",
				"TB_SkyColorB": "0.1215686, 0.03529412, 0.172549",
				"TB_SkyGradientDirection": "0, 1, 0",
				"TB_FogColor": "0, 0, 0",
				"TB_FogDensity": "0",
				"TB_SkyColorHorizon": "0, 0, 0",
				"TB_SkyColorZenith": "0.1215686, 0.03529412, 0.172549"
			}
		}
	}
}