{
	"asset": {
		"generator": "Tilt Brush 22.3.bfe37158d",
		"version": "1.1",
		"copyright": "Unknown."
	},
	"buffers": {
		"buffer_sketch": {
			"byteLength": 3001692,
			"type": "arraybuffer",
			"uri": "sketch.bin"
		}
	},
	"accessors": {
		"accessor_position_MatteHull_79348357-432d-4746-8e29-0e25c112e3aa_0_i0": {
			"bufferView": "vec3BufferView",
			"byteOffset": 0,
			"byteStride": 12,
			"componentType": 5126,
			"count": 30366,
			"max": [ 0.139263973, 0.199356556, 0.266889691 ],
			"min": [ -0.365961671, -0.0101927286, -0.0966344476 ],
			"type": "VEC3"
		},
		"accessor_normal_MatteHull_79348357-432d-4746-8e29-0e25c112e3aa_0_i0": {
			"bufferView": "vec3BufferView",
			"byteOffset": 364392,
			"byteStride": 12,
			"componentType": 5126,
			"count": 30366,
			"max": [ 0.999672592, 0.999937654, 0.999726832 ],
			"min": [ -0.999824107, -0.999875367, -0.999449432 ],
			"type": "VEC3"
		},
		"accessor_color_MatteHull_79348357-432d-4746-8e29-0e25c112e3aa_0_i0": {
			"bufferView": "vec4BufferView",
			"byteOffset": 0,
			"byteStride": 16,
			"componentType": 5126,
			"count": 30366,
			"type": "VEC4"
		},
		"accessor_uv0_MatteHull_79348357-432d-4746-8e29-0e25c112e3aa_0_i0": {
			"bufferView": "vec3BufferView",
			"byteOffset": 728784,
			"byteStride": 12,
			"componentType": 5126,
			"count": 30366,
			"max": [ 0, 1, 0.0126175573 ],
			"min": [ 0, 1, 0.00433978951 ],
			"type": "VEC3"
		},
		"accessor_indices_0_MatteHull_79348357-432d-4746-8e29-0e25c112e3aa_0_i0": {
			"bufferView": "ushortBufferView",
			"byteOffset": 0,
			"byteStride": 0,
			"componentType": 5123,
			"count": 30366,
			"max": [ 30365 ],
			"min": [ 0 ],
			"type": "SCALAR"
		},
		"accessor_position_Icing_2f212815-f4d3-c1a4-681a-feeaf9c6dc37_0_i0": {
			"bufferView": "vec3BufferView",
			"byteOffset": 1093176,
			"byteStride": 12,
			"componentType": 5126,
			"count": 17586,
			"max": [ 0.129093766, 0.0945507139, 0.213689089 ],
			"min": [ -0.160846218, -0.0341456048, -0.0884457231 ],
			"type": "VEC3"
		},
		"accessor_normal_Icing_2f212815-f4d3-c1a4-681a-feeaf9c6dc37_0_i0": {
			"bufferView": "vec3BufferView",
			"byteOffset": 1304208,
			"byteStride": 12,
			"componentType": 5126,
			"count": 17586,
			"max": [ 0.999599576, 0.999993563, 0.999969482 ],
			"min": [ -0.999599576, -0.999993563, -0.999969482 ],
			"type": "VEC3"
		},
		"accessor_color_Icing_2f212815-f4d3-c1a4-681a-feeaf9c6dc37_0_i0": {
			"bufferView": "vec4BufferView",
			"byteOffset": 485856,
			"byteStride": 16,
			"componentType": 5126,
			"count": 17586,
			"type": "VEC4"
		},
		"accessor_tangent_Icing_2f212815-f4d3-c1a4-681a-feeaf9c6dc37_0_i0": {
			"bufferView": "vec4BufferView",
			"byteOffset": 767232,
			"byteStride": 16,
			"componentType": 5126,
			"count": 17586,
			"max": [ 0.999496341, 0.999860466, 0.999802709, 1 ],
			"min": [ -0.999966502, -0.999860466, -0.999802649, 1 ],
			"type": "VEC4"
		},
		"accessor_uv0_Icing_2f212815-f4d3-c1a4-681a-feeaf9c6dc37_0_i0": {
			"bufferView": "vec3BufferView",
			"byteOffset": 1515240,
			"byteStride": 12,
			"componentType": 5126,
			"count": 17586,
			"max": [ 4.41361046, 1, 0.0238718893 ],
			"min": [ -0.0455615222, 0, 0 ],
			"type": "VEC3"
		},
		"accessor_indices_0_Icing_2f212815-f4d3-c1a4-681a-feeaf9c6dc37_0_i0": {
			"bufferView": "ushortBufferView",
			"byteOffset": 60732,
			"byteStride": 0,
			"componentType": 5123,
			"count": 83040,
			"max": [ 17585 ],
			"min": [ 0 ],
			"type": "SCALAR"
		}
	},
	"bufferViews": {
		"ushortBufferView": {
			"buffer": "buffer_sketch",
			"byteLength": 226812,
			"byteOffset": 0,
			"target": 34963
		},
		"vec3BufferView": {
			"buffer": "buffer_sketch",
			"byteLength": 1726272,
			"byteOffset": 226812,
			"target": 34962
		},
		"vec4BufferView": {
			"buffer": "buffer_sketch",
			"byteLength": 1048608,
			"byteOffset": 1953084,
			"target": 34962
		}
	},
	"meshes": {
		"mesh_MatteHull_79348357-432d-4746-8e29-0e25c112e3aa_0_i0": {
			"name": "mesh_MatteHull_79348357-432d-4746-8e29-0e25c112e3aa_0_i0",
			"primitives": [
				{
					"attributes": {
						"POSITION": "accessor_position_MatteHull_79348357-432d-4746-8e29-0e25c112e3aa_0_i0",
						"NORMAL": "accessor_normal_MatteHull_79348357-432d-4746-8e29-0e25c112e3aa_0_i0",
						"COLOR": "accessor_color_MatteHull_79348357-432d-4746-8e29-0e25c112e3aa_0_i0",
						"TEXCOORD_0": "accessor_uv0_MatteHull_79348357-432d-4746-8e29-0e25c112e3aa_0_i0"
					},
					"indices": "accessor_indices_0_MatteHull_79348357-432d-4746-8e29-0e25c112e3aa_0_i0",
					"material": "material_79348357-432d-4746-8e29-0e25c112e3aa",
					"mode": 4
				}
			]
		},
		"mesh_Icing_2f212815-f4d3-c1a4-681a-feeaf9c6dc37_0_i0": {
			"name": "mesh_Icing_2f212815-f4d3-c1a4-681a-feeaf9c6dc37_0_i0",
			"primitives": [
				{
					"attributes": {
						"POSITION": "accessor_position_Icing_2f212815-f4d3-c1a4-681a-feeaf9c6dc37_0_i0",
						"NORMAL": "accessor_normal_Icing_2f212815-f4d3-c1a4-681a-feeaf9c6dc37_0_i0",
						"COLOR": "accessor_color_Icing_2f212815-f4d3-c1a4-681a-feeaf9c6dc37_0_i0",
						"TANGENT": "accessor_tangent_Icing_2f212815-f4d3-c1a4-681a-feeaf9c6dc37_0_i0",
						"TEXCOORD_0": "accessor_uv0_Icing_2f212815-f4d3-c1a4-681a-feeaf9c6dc37_0_i0"
					},
					"indices": "accessor_indices_0_Icing_2f212815-f4d3-c1a4-681a-feeaf9c6dc37_0_i0",
					"material": "material_2f212815-f4d3-c1a4-681a-feeaf9c6dc37",
					"mode": 4
				}
			]
		}
	},
	"shaders": {
		"vertex_79348357-432d-4746-8e29-0e25c112e3aa": {
			"type": 35633,
			"uri": "https://www.tiltbrush.com/shaders/brushes/MatteHull-79348357-432d-4746-8e29-0e25c112e3aa/MatteHull-79348357-432d-4746-8e29-0e25c112e3aa-v10.0-vertex.glsl"
		},
		"fragment_79348357-432d-4746-8e29-0e25c112e3aa": {
			"type": 35632,
			"uri": "https://www.tiltbrush.com/shaders/brushes/MatteHull-79348357-432d-4746-8e29-0e25c112e3aa/MatteHull-79348357-432d-4746-8e29-0e25c112e3aa-v10.0-fragment.glsl"
		},
		"vertex_2f212815-f4d3-c1a4-681a-feeaf9c6dc37": {
			"type": 35633,
			"uri": "https://www.tiltbrush.com/shaders/brushes/Icing-2f212815-f4d3-c1a4-681a-feeaf9c6dc37/Icing-2f212815-f4d3-c1a4-681a-feeaf9c6dc37-v10.0-vertex.glsl"
		},
		"fragment_2f212815-f4d3-c1a4-681a-feeaf9c6dc37": {
			"type": 35632,
			"uri": "https://www.tiltbrush.com/shaders/brushes/Icing-2f212815-f4d3-c1a4-681a-feeaf9c6dc37/Icing-2f212815-f4d3-c1a4-681a-feeaf9c6dc37-v10.0-fragment.glsl"
		}
	},
	"programs": {
		"program_79348357-432d-4746-8e29-0e25c112e3aa": {
			"attributes": [
				"a_position",
				"a_normal",
				"a_color",
				"a_texcoord0"
			],
			"vertexShader": "vertex_79348357-432d-4746-8e29-0e25c112e3aa",
			"fragmentShader": "fragment_79348357-432d-4746-8e29-0e25c112e3aa"
		},
		"program_2f212815-f4d3-c1a4-681a-feeaf9c6dc37": {
			"attributes": [
				"a_position",
				"a_normal",
				"a_color",
				"a_tangent",
				"a_texcoord0"
			],
			"vertexShader": "vertex_2f212815-f4d3-c1a4-681a-feeaf9c6dc37",
			"fragmentShader": "fragment_2f212815-f4d3-c1a4-681a-feeaf9c6dc37"
		}
	},
	"techniques": {
		"technique_79348357-432d-4746-8e29-0e25c112e3aa": {
			"program": "program_79348357-432d-4746-8e29-0e25c112e3aa",
			"parameters": {
				"position": {
					"type": 35665,
					"semantic": "POSITION"
				},
				"normal": {
					"type": 35665,
					"semantic": "NORMAL"
				},
				"color": {
					"type": 35666,
					"semantic": "COLOR"
				},
				"texcoord0": {
					"type": 35665,
					"semantic": "TEXCOORD_0"
				},
				"modelViewMatrix": {
					"type": 35676,
					"semantic": "MODELVIEW"
				},
				"projectionMatrix": {
					"type": 35676,
					"semantic": "PROJECTION"
				},
				"normalMatrix": {
					"type": 35675,
					"semantic": "MODELVIEWINVERSETRANSPOSE"
				},
				"SceneLight_0_matrix": {
					"type": 35676,
					"semantic": "MODELVIEW",
					"node": "node_SceneLight_0_i1"
				},
				"SceneLight_0_color": {
					"type": 35666,
					"node": "node_SceneLight_0_i1"
				},
				"SceneLight_1_matrix": {
					"type": 35676,
					"semantic": "MODELVIEW",
					"node": "node_SceneLight_1_i2"
				},
				"SceneLight_1_color": {
					"type": 35666,
					"node": "node_SceneLight_1_i2"
				},
				"ambient_light_color": {
					"type": 35666
				},
				"Cutoff": {
					"type": 5126
				},
				"Color": {
					"type": 35666
				}
			},
			"attributes": {
				"a_position": "position",
				"a_normal": "normal",
				"a_color": "color",
				"a_texcoord0": "texcoord0"
			},
			"uniforms": {
				"u_modelViewMatrix": "modelViewMatrix",
				"u_projectionMatrix": "projectionMatrix",
				"u_normalMatrix": "normalMatrix",
				"u_SceneLight_0_matrix": "SceneLight_0_matrix",
				"u_SceneLight_0_color": "SceneLight_0_color",
				"u_SceneLight_1_matrix": "SceneLight_1_matrix",
				"u_SceneLight_1_color": "SceneLight_1_color",
				"u_ambient_light_color": "ambient_light_color",
				"u_Cutoff": "Cutoff",
				"u_Color": "Color"
			},
			"states": {
				"enable": [
					2929
				],
				"functions": {
					"depthMask": [true]
				}
			}
		},
		"technique_2f212815-f4d3-c1a4-681a-feeaf9c6dc37": {
			"program": "program_2f212815-f4d3-c1a4-681a-feeaf9c6dc37",
			"parameters": {
				"position": {
					"type": 35665,
					"semantic": "POSITION"
				},
				"normal": {
					"type": 35665,
					"semantic": "NORMAL"
				},
				"color": {
					"type": 35666,
					"semantic": "COLOR"
				},
				"tangent": {
					"type": 35666,
					"semantic": "TANGENT"
				},
				"texcoord0": {
					"type": 35665,
					"semantic": "TEXCOORD_0"
				},
				"modelViewMatrix": {
					"type": 35676,
					"semantic": "MODELVIEW"
				},
				"projectionMatrix": {
					"type": 35676,
					"semantic": "PROJECTION"
				},
				"normalMatrix": {
					"type": 35675,
					"semantic": "MODELVIEWINVERSETRANSPOSE"
				},
				"SceneLight_0_matrix": {
					"type": 35676,
					"semantic": "MODELVIEW",
					"node": "node_SceneLight_0_i1"
				},
				"SceneLight_0_color": {
					"type": 35666,
					"node": "node_SceneLight_0_i1"
				},
				"SceneLight_1_matrix": {
					"type": 35676,
					"semantic": "MODELVIEW",
					"node": "node_SceneLight_1_i2"
				},
				"SceneLight_1_color": {
					"type": 35666,
					"node": "node_SceneLight_1_i2"
				},
				"ambient_light_color": {
					"type": 35666
				},
				"Shininess": {
					"type": 5126
				},
				"Cutoff": {
					"type": 5126
				},
				"Color": {
					"type": 35666
				},
				"SpecColor": {
					"type": 35666
				},
				"BumpMap_TexelSize": {
					"type": 35666
				},
				"BumpMap": {
					"type": 35678
				}
			},
			"attributes": {
				"a_position": "position",
				"a_normal": "normal",
				"a_color": "color",
				"a_tangent": "tangent",
				"a_texcoord0": "texcoord0"
			},
			"uniforms": {
				"u_modelViewMatrix": "modelViewMatrix",
				"u_projectionMatrix": "projectionMatrix",
				"u_normalMatrix": "normalMatrix",
				"u_SceneLight_0_matrix": "SceneLight_0_matrix",
				"u_SceneLight_0_color": "SceneLight_0_color",
				"u_SceneLight_1_matrix": "SceneLight_1_matrix",
				"u_SceneLight_1_color": "SceneLight_1_color",
				"u_ambient_light_color": "ambient_light_color",
				"u_Shininess": "Shininess",
				"u_Cutoff": "Cutoff",
				"u_Color": "Color",
				"u_SpecColor": "SpecColor",
				"u_BumpMap_TexelSize": "BumpMap_TexelSize",
				"u_BumpMap": "BumpMap"
			},
			"states": {
				"enable": [
					2929,
					2884
				],
				"functions": {
					"depthMask": [true]
				}
			}
		}
	},
	"samplers": {
		"sampler_LINEAR_LINEAR_MIPMAP_LINEAR_REPEAT": {
			"magFilter": 9729,
			"minFilter": 9987,
			"wrapS": 10497,
			"wrapT": 10497
		}
	},
	"textures": {
		"texture_2f212815-f4d3-c1a4-681a-feeaf9c6dc37_BumpMap": {
			"format": 6408,
			"internalFormat": 6408,
			"sampler": "sampler_LINEAR_LINEAR_MIPMAP_LINEAR_REPEAT",
			"source": "image_2f212815-f4d3-c1a4-681a-feeaf9c6dc37_BumpMap",
			"target": 3553,
			"type": 5121
		}
	},
	"images": {
		"image_2f212815-f4d3-c1a4-681a-feeaf9c6dc37_BumpMap": {
			"uri": "https://www.tiltbrush.com/shaders/brushes/Icing-2f212815-f4d3-c1a4-681a-feeaf9c6dc37/Icing-2f212815-f4d3-c1a4-681a-feeaf9c6dc37-v10.0-BumpMap.png"
		}
	},
	"materials": {
		"material_79348357-432d-4746-8e29-0e25c112e3aa": {
			"technique": "technique_79348357-432d-4746-8e29-0e25c112e3aa",
			"values": {
				"SceneLight_0_color": [0.7780392, 0.8156863, 0.9913726, 1],
				"SceneLight_1_color": [0.4282353, 0.4211765, 0.3458824, 1],
				"ambient_light_color": [0.3921569, 0.3921569, 0.3921569, 1],
				"Cutoff": 0.5,
				"Color": [1, 1, 1, 1]
			},
			"name": "material_79348357-432d-4746-8e29-0e25c112e3aa"
		},
		"material_2f212815-f4d3-c1a4-681a-feeaf9c6dc37": {
			"technique": "technique_2f212815-f4d3-c1a4-681a-feeaf9c6dc37",
			"values": {
				"SceneLight_0_color": [0.7780392, 0.8156863, 0.9913726, 1],
				"SceneLight_1_color": [0.4282353, 0.4211765, 0.3458824, 1],
				"ambient_light_color": [0.3921569, 0.3921569, 0.3921569, 1],
				"Shininess": 0.15,
				"Cutoff": 0.5,
				"Color": [1, 1, 1, 1],
				"SpecColor": [0, 0, 0, 0],
				"BumpMap_TexelSize": [0.0009765625, 0.0078125, 1024, 128],
				"BumpMap": "texture_2f212815-f4d3-c1a4-681a-feeaf9c6dc37_BumpMap"
			},
			"name": "material_2f212815-f4d3-c1a4-681a-feeaf9c6dc37"
		}
	},
	"nodes": {
		"node_MatteHull_79348357-432d-4746-8e29-0e25c112e3aa_0_i0": {
			"name": "node_MatteHull_79348357-432d-4746-8e29-0e25c112e3aa_0_i0",
			"meshes": [
				"mesh_MatteHull_79348357-432d-4746-8e29-0e25c112e3aa_0_i0"
			],
			"matrix": [1, 0, 0, 0, 0, 1, 0, 0, 0, 0, 1, 0, 0, 0, 0, 1]
		},
		"node_SceneLight_0_i1": {
			"name": "node_SceneLight_0_i1",
			"light": "SceneLight_0",
			"matrix": [0.898794, 0.2191856, -0.3796406, 0, -0.4383712, 0.449397, -0.7783785, 0, -1.490116E-08, 0.8660254, 0.4999999, 0, -0.3696961, 0.9290094, -0.468892, 1]
		},
		"node_SceneLight_1_i2": {
			"name": "node_SceneLight_1_i2",
			"light": "SceneLight_1",
			"matrix": [0.7660446, -0.4924039, -0.4131757, 0, -0.6427875, -0.5868244, -0.4924039, 0, 2.980232E-08, 0.6427875, -0.7660447, 0, -0.3335125, 0.8965093, -0.4470139, 1]
		},
		"node_Icing_2f212815-f4d3-c1a4-681a-feeaf9c6dc37_0_i0": {
			"name": "node_Icing_2f212815-f4d3-c1a4-681a-feeaf9c6dc37_0_i0",
			"meshes": [
				"mesh_Icing_2f212815-f4d3-c1a4-681a-feeaf9c6dc37_0_i0"
			],
			"matrix": [1, 0, 0, 0, 0, 1, 0, 0, 0, 0, 1, 0, 0, 0, 0, 1]
		}
	},
	"scene": "defaultScene",
	"scenes": {
		"defaultScene": {
			"nodes": [
				"node_MatteHull_79348357-432d-4746-8e29-0e25c112e3aa_0_i0",
				"node_SceneLight_0_i1",
				"node_SceneLight_1_i2",
				"node_Icing_2f212815-f4d3-c1a4-681a-feeaf9c6dc37_0_i0"
			],
			"extras": {
				"TB_EnvironmentGuid": "ab080599-e465-4a6d-8587-43bf495af68b",
				"TB_Environment": "Standard",
				"TB_UseGradient": "true",
				"TB_SkyColorA": "0.2745098, 0.2745098, 0.3176471",
				"TB_SkyColorB": "0.03529412, 0.03529412, 0.08627451",
				"TB_SkyGradientDirection": "0, 1, 0",
				"TB_FogColor": "0.1647059, 0.1647059, 0.2078431",
				"TB_FogDensity": "0.0025",
				"TB_SkyColorHorizon": "0.2745098, 0.2745098, 0.3176471",
				"TB_SkyColorZenith": "0.03529412, 0.03529412, 0.08627451"
			}
		}
	}
}