{
	"asset": {
		"generator": "Tilt Brush 22.3.bfe37158d",
		"version": "1.1",
		"copyright": "Unknown."
	},
	"buffers": {
		"buffer_sketch": {
			"byteLength": 680562,
			"type": "arraybuffer",
			"uri": "sketch.bin"
		}
	},
	"accessors": {
		"accessor_position_ShinyHull_faaa4d44-fcfb-4177-96be-753ac0421ba3_0_i0": {
			"bufferView": "vec3BufferView",
			"byteOffset": 0,
			"byteStride": 12,
			"componentType": 5126,
			"count": 12603,
			"max": [ -0.763176382, 0.492934376, 0.421596676 ],
			"min": [ -0.981268704, 0.257492572, -0.0101034259 ],
			"type": "VEC3"
		},
		"accessor_normal_ShinyHull_faaa4d44-fcfb-4177-96be-753ac0421ba3_0_i0": {
			"bufferView": "vec3BufferView",
			"byteOffset": 151236,
			"byteStride": 12,
			"componentType": 5126,
			"count": 12603,
			"max": [ 1, 1, 1 ],
			"min": [ -1, -1, -1 ],
			"type": "VEC3"
		},
		"accessor_color_ShinyHull_faaa4d44-fcfb-4177-96be-753ac0421ba3_0_i0": {
			"bufferView": "vec4BufferView",
			"byteOffset": 0,
			"byteStride": 16,
			"componentType": 5126,
			"count": 12603,
			"type": "VEC4"
		},
		"accessor_uv0_ShinyHull_faaa4d44-fcfb-4177-96be-753ac0421ba3_0_i0": {
			"bufferView": "vec3BufferView",
			"byteOffset": 302472,
			"byteStride": 12,
			"componentType": 5126,
			"count": 12603,
			"max": [ 0, 1, 0.0236284267 ],
			"min": [ 0, 1, 0.000500000024 ],
			"type": "VEC3"
		},
		"accessor_indices_0_ShinyHull_faaa4d44-fcfb-4177-96be-753ac0421ba3_0_i0": {
			"bufferView": "ushortBufferView",
			"byteOffset": 0,
			"byteStride": 0,
			"componentType": 5123,
			"count": 12603,
			"max": [ 12602 ],
			"min": [ 0 ],
			"type": "SCALAR"
		}
	},
	"bufferViews": {
		"ushortBufferView": {
			"buffer": "buffer_sketch",
			"byteLength": 25206,
			"byteOffset": 0,
			"target": 34963
		},
		"vec3BufferView": {
			"buffer": "buffer_sketch",
			"byteLength": 453708,
			"byteOffset": 25206,
			"target": 34962
		},
		"vec4BufferView": {
			"buffer": "buffer_sketch",
			"byteLength": 201648,
			"byteOffset": 478914,
			"target": 34962
		}
	},
	"meshes": {
		"mesh_ShinyHull_faaa4d44-fcfb-4177-96be-753ac0421ba3_0_i0": {
			"name": "mesh_ShinyHull_faaa4d44-fcfb-4177-96be-753ac0421ba3_0_i0",
			"primitives": [
				{
					"attributes": {
						"POSITION": "accessor_position_ShinyHull_faaa4d44-fcfb-4177-96be-753ac0421ba3_0_i0",
						"NORMAL": "accessor_normal_ShinyHull_faaa4d44-fcfb-4177-96be-753ac0421ba3_0_i0",
						"COLOR": "accessor_color_ShinyHull_faaa4d44-fcfb-4177-96be-753ac0421ba3_0_i0",
						"TEXCOORD_0": "accessor_uv0_ShinyHull_faaa4d44-fcfb-4177-96be-753ac0421ba3_0_i0"
					},
					"indices": "accessor_indices_0_ShinyHull_faaa4d44-fcfb-4177-96be-753ac0421ba3_0_i0",
					"material": "material_faaa4d44-fcfb-4177-96be-753ac0421ba3",
					"mode": 4
				}
			]
		}
	},
	"shaders": {
		"vertex_faaa4d44-fcfb-4177-96be-753ac0421ba3": {
			"type": 35633,
			"uri": "https://www.tiltbrush.com/shaders/brushes/ShinyHull-faaa4d44-fcfb-4177-96be-753ac0421ba3/ShinyHull-faaa4d44-fcfb-4177-96be-753ac0421ba3-v10.0-vertex.glsl"
		},
		"fragment_faaa4d44-fcfb-4177-96be-753ac0421ba3": {
			"type": 35632,
			"uri": "https://www.tiltbrush.com/shaders/brushes/ShinyHull-faaa4d44-fcfb-4177-96be-753ac0421ba3/ShinyHull-faaa4d44-fcfb-4177-96be-753ac0421ba3-v10.0-fragment.glsl"
		}
	},
	"programs": {
		"program_faaa4d44-fcfb-4177-96be-753ac0421ba3": {
			"attributes": [
				"a_position",
				"a_normal",
				"a_color",
				"a_texcoord0"
			],
			"vertexShader": "vertex_faaa4d44-fcfb-4177-96be-753ac0421ba3",
			"fragmentShader": "fragment_faaa4d44-fcfb-4177-96be-753ac0421ba3"
		}
	},
	"techniques": {
		"technique_faaa4d44-fcfb-4177-96be-753ac0421ba3": {
			"program": "program_faaa4d44-fcfb-4177-96be-753ac0421ba3",
			"parameters": {
				"position": {
					"type": 35665,
					"semantic": "POSITION"
				},
				"normal": {
					"type": 35665,
					"semantic": "NORMAL"
				},
				"color": {
					"type": 35666,
					"semantic": "COLOR"
				},
				"texcoord0": {
					"type": 35665,
					"semantic": "TEXCOORD_0"
				},
				"modelViewMatrix": {
					"type": 35676,
					"semantic": "MODELVIEW"
				},
				"projectionMatrix": {
					"type": 35676,
					"semantic": "PROJECTION"
				},
				"normalMatrix": {
					"type": 35675,
					"semantic": "MODELVIEWINVERSETRANSPOSE"
				},
				"SceneLight_0_matrix": {
					"type": 35676,
					"semantic": "MODELVIEW",
					"node": "node_SceneLight_0_i1"
				},
				"SceneLight_0_color": {
					"type": 35666,
					"node": "node_SceneLight_0_i1"
				},
				"SceneLight_1_matrix": {
					"type": 35676,
					"semantic": "MODELVIEW",
					"node": "node_SceneLight_1_i2"
				},
				"SceneLight_1_color": {
					"type": 35666,
					"node": "node_SceneLight_1_i2"
				},
				"ambient_light_color": {
					"type": 35666
				},
				"Shininess": {
					"type": 5126
				},
				"Cutoff": {
					"type": 5126
				},
				"Color": {
					"type": 35666
				},
				"SpecColor": {
					"type": 35666
				}
			},
			"attributes": {
				"a_position": "position",
				"a_normal": "normal",
				"a_color": "color",
				"a_texcoord0": "texcoord0"
			},
			"uniforms": {
				"u_modelViewMatrix": "modelViewMatrix",
				"u_projectionMatrix": "projectionMatrix",
				"u_normalMatrix": "normalMatrix",
				"u_SceneLight_0_matrix": "SceneLight_0_matrix",
				"u_SceneLight_0_color": "SceneLight_0_color",
				"u_SceneLight_1_matrix": "SceneLight_1_matrix",
				"u_SceneLight_1_color": "SceneLight_1_color",
				"u_ambient_light_color": "ambient_light_color",
				"u_Shininess": "Shininess",
				"u_Cutoff": "Cutoff",
				"u_Color": "Color",
				"u_SpecColor": "SpecColor"
			},
			"states": {
				"enable": [
					2929
				],
				"functions": {
					"depthMask": [true]
				}
			}
		}
	},
	"materials": {
		"material_faaa4d44-fcfb-4177-96be-753ac0421ba3": {
			"technique": "technique_faaa4d44-fcfb-4177-96be-753ac0421ba3",
			"values": {
				"SceneLight_0_color": [1.863474, 1.675967, 1.725555, 1],
				"SceneLight_1_color": [0, 0, 0, 1],
				"ambient_light_color": [0.5179332, 0.5176955, 0.5195497, 1],
				"Shininess": 0.743,
				"Cutoff": 0.5,
				"Color": [1, 1, 1, 1],
				"SpecColor": [0.1985294, 0.1985294, 0.1985294, 0]
			},
			"name": "material_faaa4d44-fcfb-4177-96be-753ac0421ba3"
		}
	},
	"nodes": {
		"node_ShinyHull_faaa4d44-fcfb-4177-96be-753ac0421ba3_0_i0": {
			"name": "node_ShinyHull_faaa4d44-fcfb-4177-96be-753ac0421ba3_0_i0",
			"meshes": [
				"mesh_ShinyHull_faaa4d44-fcfb-4177-96be-753ac0421ba3_0_i0"
			],
			"matrix": [1, 0, 0, 0, 0, 1, 0, 0, 0, 0, 1, 0, 0, 0, 0, 1]
		},
		"node_SceneLight_0_i1": {
			"name": "node_SceneLight_0_i1",
			"light": "SceneLight_0",
			"matrix": [0.7386057, 0.663414, 0.1197638, 0, -0.3802362, 0.5566703, -0.7386059, 0, -0.5566704, 0.5, 0.6634139, 0, -0.8777226, 0.3732863, 0.1110077, 1]
		},
		"node_SceneLight_1_i2": {
			"name": "node_SceneLight_1_i2",
			"light": "SceneLight_1",
			"matrix": [1, 0, 0, 0, 0, 1, 0, 0, 0, 0, 1, 0, -0.7971857, 0.3009482, 0.1597037, 1]
		}
	},
	"scene": "defaultScene",
	"scenes": {
		"defaultScene": {
			"nodes": [
				"node_ShinyHull_faaa4d44-fcfb-4177-96be-753ac0421ba3_0_i0",
				"node_SceneLight_0_i1",
				"node_SceneLight_1_i2"
			],
			"extras": {
				"TB_EnvironmentGuid": "96cf6f36-47b6-44f4-bdbf-63be2ddac909",
				"TB_Environment": "Space",
				"TB_UseGradient": "false",
				"TB_SkyColorA": "0, 0, 0",
				"TB_SkyColorB": "0.1215686, 0.03529412, 0.172549",
				"TB_SkyGradientDirection": "0, 1, 0",
				"TB_FogColor": "0, 0, 0",
				"TB_FogDensity": "0",
				"TB_SkyColorHorizon": "0, 0, 0",
				"TB_SkyColorZenith": "0.1215686, 0.03529412, 0.172549"
			}
		}
	}
}